<svg width="50" height="49" viewBox="0 0 50 49" fill="none" xmlns="http://www.w3.org/2000/svg">
<rect x="0.87793" width="48.6484" height="48.6484" rx="24.3242" fill="#F56630"/>
<path fill-rule="evenodd" clip-rule="evenodd" d="M31.2021 15.8242H19.2021C17.5453 15.8242 16.2021 17.1674 16.2021 18.8242V26.8242C16.2021 28.4811 17.5453 29.8242 19.2021 29.8242H21.2021C21.8513 29.8242 22.4829 30.0347 23.0021 30.4242L24.4021 31.4742C25.4688 32.2742 26.9355 32.2742 28.0021 31.4742L29.4021 30.4242C29.9214 30.0347 30.553 29.8242 31.2021 29.8242C32.859 29.8242 34.2021 28.4811 34.2021 26.8242V18.8242C34.2021 17.1674 32.859 15.8242 31.2021 15.8242ZM19.2021 20.8242C19.2021 20.2719 19.6499 19.8242 20.2021 19.8242H25.2021C25.7544 19.8242 26.2021 20.2719 26.2021 20.8242C26.2021 21.3765 25.7544 21.8242 25.2021 21.8242H20.2021C19.6499 21.8242 19.2021 21.3765 19.2021 20.8242ZM20.2021 23.8242C19.6499 23.8242 19.2021 24.2719 19.2021 24.8242C19.2021 25.3765 19.6499 25.8242 20.2021 25.8242H29.2021C29.7544 25.8242 30.2021 25.3765 30.2021 24.8242C30.2021 24.2719 29.7544 23.8242 29.2021 23.8242H20.2021Z" fill="white"/>
</svg>
