<svg width="878" height="300" viewBox="0 0 878 300" fill="none" xmlns="http://www.w3.org/2000/svg">
<path d="M225.5 179.5C243.167 179.5 252 187 252 202C252 214 248.667 222.333 242 227C235.333 231.667 224.833 234 210.5 234H200L198 260.5C197 275.833 193.667 286.167 188 291.5C182.667 296.833 173.833 299.5 161.5 299.5C143.833 299.5 135 288.667 135 267C135 263.333 135.167 260.5 135.5 258.5L138 234C89.6667 234 53 233.833 28 233.5C20.6667 233.5 14.1667 230.167 8.5 223.5C2.83333 216.833 2.08616e-07 208.167 2.08616e-07 197.5C2.08616e-07 191.167 1.16667 184.5 3.5 177.5C18.1667 134.833 40.1667 86.3333 69.5 32C75.8333 20.3333 82.1667 12.1667 88.5 7.5C95.1667 2.49998 105.333 -2.55108e-05 119 -2.55108e-05C126.333 -2.55108e-05 131.833 1.66665 135.5 5C139.5 8.33333 141.5 12.6667 141.5 18C141.5 23.6667 139.833 29.3333 136.5 35C103.833 94.6667 80.8333 142.833 67.5 179.5H144.5C148.5 148.5 154 119 161 91C163.667 80.6667 168 72.8333 174 67.5C180 61.8333 188.333 59 199 59C216 59 224.5 66.3333 224.5 81C224.5 85.3333 224.167 88.6667 223.5 91C217.5 119.333 212.167 148.833 207.5 179.5H225.5ZM850.559 179.5C868.225 179.5 877.059 187 877.059 202C877.059 214 873.725 222.333 867.059 227C860.392 231.667 849.892 234 835.559 234H825.059L823.059 260.5C822.059 275.833 818.725 286.167 813.059 291.5C807.725 296.833 798.892 299.5 786.559 299.5C768.892 299.5 760.059 288.667 760.059 267C760.059 263.333 760.225 260.5 760.559 258.5L763.059 234C714.725 234 678.059 233.833 653.059 233.5C645.725 233.5 639.225 230.167 633.559 223.5C627.892 216.833 625.059 208.167 625.059 197.5C625.059 191.167 626.225 184.5 628.559 177.5C643.225 134.833 665.225 86.3333 694.559 32C700.892 20.3333 707.225 12.1667 713.559 7.5C720.225 2.49998 730.392 -2.55108e-05 744.059 -2.55108e-05C751.392 -2.55108e-05 756.892 1.66665 760.559 5C764.559 8.33333 766.559 12.6667 766.559 18C766.559 23.6667 764.892 29.3333 761.559 35C728.892 94.6667 705.892 142.833 692.559 179.5H769.559C773.559 148.5 779.059 119 786.059 91C788.725 80.6667 793.059 72.8333 799.059 67.5C805.059 61.8333 813.392 59 824.059 59C841.059 59 849.559 66.3333 849.559 81C849.559 85.3333 849.225 88.6667 848.559 91C842.559 119.333 837.225 148.833 832.559 179.5H850.559Z" fill="#585858"/>
<path d="M425.074 294.5C392.408 294.5 367.074 283.833 349.074 262.5C331.408 241.167 322.574 210.667 322.574 171C322.574 137.333 327.741 107.667 338.074 82C348.741 56 363.408 35.8333 382.074 21.5C401.074 7.16665 423.074 -2.55108e-05 448.074 -2.55108e-05C480.741 -2.55108e-05 505.908 10.6666 523.574 32C541.574 53.3333 550.574 83.8333 550.574 123.5C550.574 157.167 545.241 187 534.574 213C524.241 238.667 509.574 258.667 490.574 273C471.908 287.333 450.074 294.5 425.074 294.5ZM430.074 238.5C448.074 238.5 462.241 228.5 472.574 208.5C482.908 188.5 488.074 161.333 488.074 127C488.074 104 484.241 86.5 476.574 74.5C468.908 62.1667 457.741 56 443.074 56C425.074 56 410.908 66.1667 400.574 86.5C390.241 106.5 385.074 133.667 385.074 168C385.074 191 388.741 208.5 396.074 220.5C403.741 232.5 415.074 238.5 430.074 238.5Z" fill="#F78B3E"/>
</svg>
