<svg width="23" height="20" viewBox="0 0 23 20" fill="none" xmlns="http://www.w3.org/2000/svg">
<g clip-path="url(#clip0_222_71512)">
<path d="M22.4852 9.63046C22.2886 9.39827 17.6058 3.94507 11.6249 3.94507C5.64402 3.94507 0.96093 9.39827 0.764606 9.63024C0.578465 9.85052 0.578465 10.1493 0.764606 10.3696C0.96093 10.6018 5.64402 16.055 11.6249 16.055C17.6058 16.055 22.2886 10.6017 22.4852 10.3698C22.6716 10.1495 22.6716 9.85052 22.4852 9.63046ZM11.6249 14.8022C7.21934 14.8022 3.40367 11.1828 2.27414 9.99959C3.4022 8.81531 7.20989 5.19781 11.6249 5.19781C16.0302 5.19781 19.8456 8.81657 20.9756 10.0004C19.8476 11.1847 16.0399 14.8022 11.6249 14.8022Z" fill="#8E8E8E"/>
<path d="M11.6251 6.2417C9.22564 6.2417 7.27344 7.92769 7.27344 9.99996C7.27344 12.0722 9.22564 13.7582 11.6251 13.7582C14.0246 13.7582 15.9768 12.0722 15.9768 9.99996C15.9768 7.92769 14.0246 6.2417 11.6251 6.2417ZM11.6251 12.5054C10.0254 12.5054 8.72402 11.3815 8.72402 9.99996C8.72402 8.61841 10.0254 7.49448 11.6251 7.49448C13.2248 7.49448 14.5262 8.61841 14.5262 9.99996C14.5262 11.3815 13.2248 12.5054 11.6251 12.5054Z" fill="#8E8E8E"/>
</g>
<defs>
<clipPath id="clip0_222_71512">
<rect width="22" height="19" fill="white" transform="translate(0.625 0.5)"/>
</clipPath>
</defs>
</svg>
